<svg width="84" height="84" viewBox="0 0 84 84" fill="none" xmlns="http://www.w3.org/2000/svg">
<g filter="url(#filter0_d_0_1)">
<circle cx="41" cy="38" r="22" fill="#29292D"/>
</g>
<path d="M49.0441 46.0025L47.8712 33.1256C47.8396 32.7709 47.5426 32.5 47.1865 32.5H45.124V31.125C45.124 30.0195 44.695 28.9827 43.9181 28.2059C43.1536 27.44 42.0894 27 40.999 27C38.7247 27 36.874 28.8507 36.874 31.125V32.5H34.8115C34.4554 32.5 34.1584 32.7709 34.1267 33.1256L32.9566 46.0011C32.8865 46.7698 33.145 47.5356 33.6647 48.1049C34.1845 48.6741 34.9242 49 35.6956 49H46.3037C47.0737 49 47.8135 48.6741 48.3332 48.1063C48.8544 47.537 49.1115 46.7697 49.0441 46.0025ZM43.749 32.5H38.249V31.125C38.249 29.6084 39.4824 28.375 40.999 28.375C41.7277 28.375 42.4372 28.6665 42.946 29.1766C43.4644 29.695 43.749 30.3866 43.749 31.125V32.5Z" fill="white"/>
<circle cx="59" cy="16" r="10" fill="#FF1818"/>
<path d="M59.185 19.194C59.705 19.194 60.0647 19.0683 60.264 18.817C60.472 18.557 60.576 18.1063 60.576 17.465C60.576 16.8237 60.4373 16.36 60.16 16.074C59.8827 15.788 59.432 15.645 58.808 15.645H57.599V14.787C58.7083 14.6917 59.3973 14.592 59.666 14.488C60.0387 14.3407 60.2553 14.0503 60.316 13.617C60.3333 13.5043 60.342 13.37 60.342 13.214C60.342 12.6593 60.2423 12.2737 60.043 12.057C59.8523 11.8403 59.3713 11.732 58.6 11.732C58.2707 11.732 57.677 11.784 56.819 11.888L56.689 11.004C57.2263 10.8653 57.8937 10.796 58.691 10.796C60.537 10.796 61.46 11.5543 61.46 13.071C61.46 13.4697 61.3993 13.812 61.278 14.098C61.1653 14.384 61.018 14.592 60.836 14.722C60.5067 14.956 60.2293 15.0903 60.004 15.125V15.177C60.4113 15.229 60.784 15.398 61.122 15.684C61.5293 16.0393 61.733 16.6287 61.733 17.452C61.733 18.2667 61.512 18.9253 61.07 19.428C60.6367 19.922 59.952 20.169 59.016 20.169C58.548 20.169 58.08 20.1083 57.612 19.987C57.144 19.857 56.793 19.727 56.559 19.597L56.208 19.402L56.624 18.57C57.5427 18.986 58.3963 19.194 59.185 19.194Z" fill="white"/>
<defs>
<filter id="filter0_d_0_1" x="0" y="0" width="84" height="84" filterUnits="userSpaceOnUse" color-interpolation-filters="sRGB">
<feFlood flood-opacity="0" result="BackgroundImageFix"/>
<feColorMatrix in="SourceAlpha" type="matrix" values="0 0 0 0 0 0 0 0 0 0 0 0 0 0 0 0 0 0 127 0" result="hardAlpha"/>
<feOffset dx="1" dy="4"/>
<feGaussianBlur stdDeviation="10"/>
<feColorMatrix type="matrix" values="0 0 0 0 0 0 0 0 0 0 0 0 0 0 0 0 0 0 0.25 0"/>
<feBlend mode="normal" in2="BackgroundImageFix" result="effect1_dropShadow_0_1"/>
<feBlend mode="normal" in="SourceGraphic" in2="effect1_dropShadow_0_1" result="shape"/>
</filter>
</defs>
</svg>
