<svg width="95" height="95" viewBox="0 0 95 95" fill="none" xmlns="http://www.w3.org/2000/svg">
<circle cx="47.5" cy="47.5" r="47.5" fill="#19191A"/>
<rect x="19.95" y="19.95" width="55.1" height="55.1" stroke="#FF1818" stroke-width="1.9"/>
<path d="M30.4909 50.8493C30.6035 50.9297 30.706 51.0081 30.7985 51.0845C30.895 51.1609 31.0035 51.2333 31.1241 51.3016C31.2447 51.3659 31.3693 51.4222 31.498 51.4705C31.7794 51.583 32.095 51.6393 32.4447 51.6393C33.0317 51.6393 33.4357 51.4966 33.6568 51.2112C33.8458 50.9659 33.9402 50.7247 33.9402 50.4875C33.9402 50.2463 33.9161 50.0574 33.8679 49.9207C33.7754 49.6835 33.5905 49.4604 33.3131 49.2513C33.1965 49.1709 33.0578 49.0845 32.897 48.992L31.908 48.5036C31.5382 48.3026 31.2568 48.1076 31.0638 47.9186C30.8708 47.7297 30.7261 47.5548 30.6296 47.394C30.4166 47.0362 30.31 46.5719 30.31 46.001C30.31 45.4301 30.5171 44.9336 30.9311 44.5115C31.3452 44.0894 31.8839 43.8783 32.5473 43.8783C32.9694 43.8783 33.3473 43.9326 33.6809 44.0412C34.0186 44.1497 34.286 44.2804 34.483 44.4331L34.2538 45.2653C33.7754 44.8955 33.2327 44.7105 32.6256 44.7105C32.2437 44.7105 31.9442 44.8372 31.7271 45.0904C31.5141 45.3437 31.4075 45.6693 31.4075 46.0673C31.4075 46.2482 31.4377 46.4131 31.498 46.5618C31.5985 46.8271 31.8075 47.0643 32.1251 47.2734C32.2498 47.3618 32.4226 47.4543 32.6437 47.5508L33.5905 48.0332C33.7593 48.1257 33.9081 48.2181 34.0367 48.3106C34.1694 48.399 34.3001 48.5076 34.4287 48.6362C34.8347 49.0423 35.0378 49.5669 35.0378 50.2101C35.0378 50.8493 34.8187 51.388 34.3805 51.8262C33.9423 52.2644 33.3714 52.4835 32.6679 52.4835C31.896 52.4835 31.2608 52.3469 30.7623 52.0735C30.4929 51.9288 30.2799 51.8021 30.1231 51.6936L30.4909 50.8493ZM35.9664 43.9869H42.4128V44.8251H39.7353V52.375H38.6439V44.8251H35.9664V43.9869ZM48.3888 49.9388H45.0842L44.1797 52.375H43.1666L46.3144 43.9869H47.2189L50.3667 52.375H49.2933L48.3888 49.9388ZM48.0752 49.0945L46.7365 45.4764L45.3917 49.0945H48.0752ZM51.0662 48.1779C51.0662 47.3297 51.2411 46.5819 51.5909 45.9347C51.9366 45.2874 52.4391 44.7829 53.0984 44.4211C53.7577 44.0593 54.5296 43.8783 55.414 43.8783C56.1739 43.8783 56.7266 43.9407 57.0724 44.0653C57.4181 44.1859 57.6714 44.2904 57.8322 44.3789C57.997 44.4633 58.2081 44.5879 58.4654 44.7527L58.0432 45.5548C57.1829 45 56.3146 44.7226 55.4382 44.7226C54.9477 44.7226 54.4974 44.8191 54.0874 45.012C53.3035 45.3779 52.7567 46.001 52.4472 46.8814C52.2984 47.2955 52.224 47.7035 52.224 48.1056C52.224 49.2996 52.5939 50.2403 53.3336 50.9277C53.8241 51.4021 54.4371 51.6393 55.1728 51.6393H55.2452C55.8965 51.6393 56.5578 51.4885 57.2292 51.187V49.2031H55.4382V48.3649L58.3206 48.3588L58.3146 51.6152C57.4583 52.1941 56.4131 52.4835 55.1789 52.4835C53.9447 52.4835 52.9497 52.0876 52.1939 51.2956C51.4421 50.5036 51.0662 49.4644 51.0662 48.1779ZM61.6071 48.4915V51.5308H65.3097V52.375H60.5157V43.9869H65.3097V44.8251H61.6071V47.6473H64.1278V48.4915H61.6071Z" fill="white"/>
<path d="M30.4909 34.6993C30.6035 34.7798 30.706 34.8581 30.7985 34.9345C30.895 35.0109 31.0035 35.0833 31.1241 35.1516C31.2447 35.2159 31.3693 35.2722 31.498 35.3205C31.7794 35.433 32.095 35.4893 32.4447 35.4893C33.0317 35.4893 33.4357 35.3466 33.6568 35.0612C33.8458 34.8159 33.9402 34.5747 33.9402 34.3375C33.9402 34.0963 33.9161 33.9074 33.8679 33.7707C33.7754 33.5335 33.5905 33.3104 33.3131 33.1013C33.1965 33.0209 33.0578 32.9345 32.897 32.842L31.908 32.3536C31.5382 32.1526 31.2568 31.9576 31.0638 31.7686C30.8708 31.5797 30.7261 31.4048 30.6296 31.244C30.4166 30.8862 30.31 30.4219 30.31 29.851C30.31 29.2801 30.5171 28.7836 30.9311 28.3615C31.3452 27.9394 31.8839 27.7284 32.5473 27.7284C32.9694 27.7284 33.3473 27.7826 33.6809 27.8912C34.0186 27.9997 34.286 28.1304 34.483 28.2831L34.2538 29.1153C33.7754 28.7455 33.2327 28.5605 32.6256 28.5605C32.2437 28.5605 31.9442 28.6872 31.7271 28.9404C31.5141 29.1937 31.4075 29.5193 31.4075 29.9173C31.4075 30.0982 31.4377 30.2631 31.498 30.4118C31.5985 30.6772 31.8075 30.9143 32.1251 31.1234C32.2498 31.2118 32.4226 31.3043 32.6437 31.4008L33.5905 31.8832C33.7593 31.9757 33.9081 32.0681 34.0367 32.1606C34.1694 32.249 34.3001 32.3576 34.4287 32.4862C34.8347 32.8923 35.0378 33.4169 35.0378 34.0601C35.0378 34.6993 34.8187 35.2381 34.3805 35.6763C33.9423 36.1145 33.3714 36.3336 32.6679 36.3336C31.896 36.3336 31.2608 36.1969 30.7623 35.9235C30.4929 35.7788 30.2799 35.6521 30.1231 35.5436L30.4909 34.6993ZM35.9664 27.8369H42.4128V28.6751H39.7353V36.225H38.6439V28.6751H35.9664V27.8369ZM48.3888 33.7888H45.0842L44.1797 36.225H43.1666L46.3144 27.8369H47.2189L50.3667 36.225H49.2933L48.3888 33.7888ZM48.0752 32.9445L46.7365 29.3264L45.3917 32.9445H48.0752ZM51.0662 32.0279C51.0662 31.1797 51.2411 30.4319 51.5909 29.7847C51.9366 29.1374 52.4391 28.6329 53.0984 28.2711C53.7577 27.9093 54.5296 27.7284 55.414 27.7284C56.1739 27.7284 56.7266 27.7907 57.0724 27.9153C57.4181 28.0359 57.6714 28.1404 57.8322 28.2289C57.997 28.3133 58.2081 28.4379 58.4654 28.6027L58.0432 29.4048C57.1829 28.85 56.3146 28.5726 55.4382 28.5726C54.9477 28.5726 54.4974 28.6691 54.0874 28.862C53.3035 29.2279 52.7567 29.851 52.4472 30.7314C52.2984 31.1455 52.224 31.5536 52.224 31.9556C52.224 33.1496 52.5939 34.0903 53.3336 34.7777C53.8241 35.2521 54.4371 35.4893 55.1728 35.4893H55.2452C55.8965 35.4893 56.5578 35.3386 57.2292 35.037V33.0531H55.4382V32.2149L58.3206 32.2088L58.3146 35.4652C57.4583 36.0441 56.4131 36.3336 55.1789 36.3336C53.9447 36.3336 52.9497 35.9376 52.1939 35.1456C51.4421 34.3536 51.0662 33.3144 51.0662 32.0279ZM61.6071 32.3415V35.3808H65.3097V36.225H60.5157V27.8369H65.3097V28.6751H61.6071V31.4973H64.1278V32.3415H61.6071Z" fill="white"/>
<path d="M30.4909 66.9994C30.6035 67.0798 30.706 67.1582 30.7985 67.2345C30.895 67.3109 31.0035 67.3833 31.1241 67.4516C31.2447 67.516 31.3693 67.5722 31.498 67.6205C31.7794 67.733 32.095 67.7893 32.4447 67.7893C33.0317 67.7893 33.4357 67.6466 33.6568 67.3612C33.8458 67.116 33.9402 66.8747 33.9402 66.6375C33.9402 66.3963 33.9161 66.2074 33.8679 66.0707C33.7754 65.8335 33.5905 65.6104 33.3131 65.4013C33.1965 65.3209 33.0578 65.2345 32.897 65.142L31.908 64.6536C31.5382 64.4526 31.2568 64.2576 31.0638 64.0687C30.8708 63.8797 30.7261 63.7048 30.6296 63.544C30.4166 63.1862 30.31 62.7219 30.31 62.151C30.31 61.5802 30.5171 61.0837 30.9311 60.6615C31.3452 60.2394 31.8839 60.0284 32.5473 60.0284C32.9694 60.0284 33.3473 60.0826 33.6809 60.1912C34.0186 60.2997 34.286 60.4304 34.483 60.5832L34.2538 61.4153C33.7754 61.0455 33.2327 60.8605 32.6256 60.8605C32.2437 60.8605 31.9442 60.9872 31.7271 61.2405C31.5141 61.4937 31.4075 61.8194 31.4075 62.2174C31.4075 62.3983 31.4377 62.5631 31.498 62.7118C31.5985 62.9772 31.8075 63.2144 32.1251 63.4234C32.2498 63.5119 32.4226 63.6043 32.6437 63.7008L33.5905 64.1832C33.7593 64.2757 33.9081 64.3682 34.0367 64.4606C34.1694 64.5491 34.3001 64.6576 34.4287 64.7863C34.8347 65.1923 35.0378 65.7169 35.0378 66.3602C35.0378 66.9994 34.8187 67.5381 34.3805 67.9763C33.9423 68.4145 33.3714 68.6336 32.6679 68.6336C31.896 68.6336 31.2608 68.4969 30.7623 68.2235C30.4929 68.0788 30.2799 67.9521 30.1231 67.8436L30.4909 66.9994ZM35.9664 60.1369H42.4128V60.9751H39.7353V68.525H38.6439V60.9751H35.9664V60.1369ZM48.3888 66.0888H45.0842L44.1797 68.525H43.1666L46.3144 60.1369H47.2189L50.3667 68.525H49.2933L48.3888 66.0888ZM48.0752 65.2446L46.7365 61.6264L45.3917 65.2446H48.0752ZM51.0662 64.328C51.0662 63.4797 51.2411 62.7319 51.5909 62.0847C51.9366 61.4374 52.4391 60.9329 53.0984 60.5711C53.7577 60.2093 54.5296 60.0284 55.414 60.0284C56.1739 60.0284 56.7266 60.0907 57.0724 60.2153C57.4181 60.3359 57.6714 60.4404 57.8322 60.5289C57.997 60.6133 58.2081 60.7379 58.4654 60.9028L58.0432 61.7048C57.1829 61.15 56.3146 60.8726 55.4382 60.8726C54.9477 60.8726 54.4974 60.9691 54.0874 61.1621C53.3035 61.5279 52.7567 62.151 52.4472 63.0314C52.2984 63.4455 52.224 63.8536 52.224 64.2556C52.224 65.4496 52.5939 66.3903 53.3336 67.0778C53.8241 67.5521 54.4371 67.7893 55.1728 67.7893H55.2452C55.8965 67.7893 56.5578 67.6386 57.2292 67.3371V65.3531H55.4382V64.5149L58.3206 64.5089L58.3146 67.7652C57.4583 68.3441 56.4131 68.6336 55.1789 68.6336C53.9447 68.6336 52.9497 68.2376 52.1939 67.4456C51.4421 66.6536 51.0662 65.6144 51.0662 64.328ZM61.6071 64.6415V67.6808H65.3097V68.525H60.5157V60.1369H65.3097V60.9751H61.6071V63.7973H64.1278V64.6415H61.6071Z" fill="white"/>
</svg>
